<svg width="900" height="280" viewBox="0 0 900 280" xmlns="http://www.w3.org/2000/svg">
  <style>
    @import url('https://fonts.googleapis.com/css2?family=Space+Mono:wght@400;700&amp;family=DM+Serif+Display:ital@0;1&amp;display=swap');
    .mono { font-family: 'Space Mono', monospace; }
    .serif { font-family: 'DM Serif Display', Georgia, serif; }
  </style>

  <rect width="900" height="280" fill="#0D1117"/>
  <rect x="0" y="0" width="8" height="280" fill="#C8381A"/>
  <line x1="0" y1="0" x2="900" y2="0" stroke="#C8381A" stroke-width="2"/>
  <line x1="0" y1="278" x2="900" y2="278" stroke="#30363D" stroke-width="1"/>
  <line x1="440" y1="0" x2="440" y2="278" stroke="#30363D" stroke-width="0.8"/>
  <line x1="680" y1="0" x2="680" y2="278" stroke="#30363D" stroke-width="0.8"/>


  <text x="36" y="28" class="mono" font-size="8.5" fill="#8B949E" letter-spacing="2.5">FULL-STACK DEV · DSA · AI/ML</text>
  <text x="36" y="112" class="serif" font-size="88" font-weight="400" fill="#E6EDF3" letter-spacing="-3">Jeet</text>
  <text x="36" y="177" class="serif" font-size="88" font-weight="400" fill="#C8381A" font-style="italic" letter-spacing="-3">Verma</text>
  <text x="36" y="220" class="mono" font-size="10" fill="#8B949E" letter-spacing="3">B.TECH CSE · 2027 · INDIA</text>

  <text x="468" y="44" class="mono" font-size="8" fill="#8B949E" letter-spacing="2">CGPA</text>
  <text x="468" y="102" class="mono" font-size="52" font-weight="700" fill="#E6EDF3">9.25</text>
  <line x1="468" y1="119" x2="672" y2="119" stroke="#30363D" stroke-width="0.8"/>
  <text x="468" y="142" class="mono" font-size="8" fill="#8B949E" letter-spacing="2">PROJECTS SHIPPED</text>
  <text x="468" y="200" class="mono" font-size="52" font-weight="700" fill="#C8381A">5+</text>

  <rect x="700" y="24" width="180" height="22" fill="#C8381A" rx="0"/>
  <text x="712" y="39" class="mono" font-size="9" fill="#F5F0E8" letter-spacing="1.5">MERN STACK</text>
  <rect x="700" y="54" width="180" height="22" fill="#0F2744" rx="0"/>
  <text x="712" y="69" class="mono" font-size="9" fill="#85B7EB" letter-spacing="1.5">JAVA · DSA</text>
  <rect x="700" y="84" width="180" height="22" fill="#161B22" rx="0"/>
  <text x="712" y="99" class="mono" font-size="9" fill="#6E7681" letter-spacing="1.5">QUANTUM ML</text>
  <rect x="700" y="114" width="180" height="22" fill="#0D2B2B" rx="0"/>
  <text x="712" y="129" class="mono" font-size="9" fill="#5DCAA5" letter-spacing="1.5">LLM APIS</text>
  <rect x="700" y="144" width="180" height="22" fill="#1E1230" rx="0"/>
  <text x="712" y="159" class="mono" font-size="9" fill="#AFA9EC" letter-spacing="1.5">REACT NATIVE</text>
  <rect x="700" y="174" width="180" height="22" fill="#161B22" rx="0"/>
  <text x="712" y="189" class="mono" font-size="9" fill="#6E7681" letter-spacing="1.5">SYSTEM DESIGN</text>
  <rect x="700" y="204" width="180" height="22" fill="#1A1200" rx="0"/>
  <text x="712" y="219" class="mono" font-size="9" fill="#EF9F27" letter-spacing="1.5">CYBER SECURITY</text>

  <rect x="0" y="256" width="900" height="22" fill="#161B22"/>
  <line x1="0" y1="256" x2="900" y2="256" stroke="#30363D" stroke-width="0.8"/>
  <text x="20" y="271" class="mono" font-size="8" fill="#8B949E" letter-spacing="2">JEETVER1809 · GITHUB.COM</text>
  <text x="580" y="271" class="mono" font-size="8" fill="#8B949E" letter-spacing="2">OPEN TO INTERNSHIPS · 2026</text>
</svg>
